<?xml version="1.0" encoding="UTF-8"?>
<svg version="1.1" xmlns="http://www.w3.org/2000/svg" width="512" height="512">
<path d="M0 0 C6.13001434 4.49899267 9.97763854 9.52592025 11.81640625 16.9609375 C12.91772593 24.8092893 11.66501952 32.02441657 7.1875 38.60546875 C3.95221476 42.3515885 0.42914603 45.06048113 -3.8125 47.60546875 C-4.4725 47.60546875 -5.1325 47.60546875 -5.8125 47.60546875 C-5.8125 67.07546875 -5.8125 86.54546875 -5.8125 106.60546875 C5.4075 106.60546875 16.6275 106.60546875 28.1875 106.60546875 C28.16429688 103.38925781 28.14109375 100.17304688 28.1171875 96.859375 C28.10156067 93.72176507 28.08943319 90.5841596 28.07763672 87.4465332 C28.06761987 85.2769169 28.05400258 83.10731395 28.03662109 80.93774414 C28.01218229 77.80742074 28.00097343 74.67727687 27.9921875 71.546875 C27.98186493 70.58713272 27.97154236 69.62739044 27.96090698 68.63856506 C27.95940199 59.470116 28.94902719 50.72660319 35.1875 43.60546875 C41.0920699 38.83200275 45.77950498 36.46265946 53.4375 36.48046875 C54.53578125 36.47789063 55.6340625 36.4753125 56.765625 36.47265625 C60.1875 36.60546875 60.1875 36.60546875 63.30859375 37.09765625 C79.38631029 39.20249326 96.42549538 38.38070218 112.1875 34.60546875 C113.06921875 34.40099121 113.9509375 34.19651367 114.859375 33.98583984 C137.08756857 28.69070152 158.06796699 19.8253302 178.7265625 10.20703125 C179.51896332 9.83918015 180.31136414 9.47132904 181.1277771 9.09233093 C184.98597273 7.29770583 188.83312888 5.48409836 192.66552734 3.63500977 C194.06852928 2.97248936 195.47167951 2.31028288 196.875 1.6484375 C197.49766754 1.3397171 198.12033508 1.0309967 198.76187134 0.71292114 C204.41355373 -1.92215781 209.19642951 -2.38307846 215.17407227 -0.4074707 C216.10791748 0.0544165 217.0417627 0.51630371 218.00390625 0.9921875 C219.08188477 1.51208252 220.15986328 2.03197754 221.27050781 2.56762695 C222.41874023 3.13698975 223.56697266 3.70635254 224.75 4.29296875 C227.2518386 5.4981493 229.76040625 6.68898311 232.26953125 7.87890625 C232.91590546 8.18671524 233.56227966 8.49452423 234.22824097 8.81166077 C266.2574425 23.99529079 299.83814014 37.84725529 335.75 37.73046875 C337.53954102 37.73626953 337.53954102 37.73626953 339.36523438 37.7421875 C345.08365287 37.73583017 350.53548411 37.55951747 356.1875 36.60546875 C364.98761478 35.84777129 371.84995022 36.38003611 379.1875 41.60546875 C385.27539168 47.07723645 387.55444011 53.65140945 388.1875 61.60546875 C388.30970986 65.1482749 388.30455595 68.68590628 388.28515625 72.23046875 C388.28303383 73.71172241 388.28303383 73.71172241 388.28086853 75.22290039 C388.27530927 78.35045511 388.26276446 81.47793598 388.25 84.60546875 C388.24497973 86.73697813 388.24041775 88.86848863 388.23632812 91 C388.22620775 96.20187367 388.20662456 101.40358937 388.1875 106.60546875 C399.4075 106.60546875 410.6275 106.60546875 422.1875 106.60546875 C422.1875 87.13546875 422.1875 67.66546875 422.1875 47.60546875 C420.2075 46.94546875 418.2275 46.28546875 416.1875 45.60546875 C410.43896468 41.96005611 406.78913423 36.2535115 404.8125 29.79296875 C403.34084523 22.59035071 404.18843574 14.87533032 407.828125 8.453125 C411.77149491 3.09331474 417.53929292 -2.04093233 424.1875 -3.39453125 C433.22050562 -4.37613992 440.71397717 -3.85859858 448.1875 1.60546875 C453.63459814 6.47431868 456.84371848 11.80689518 457.50390625 19.1015625 C457.77425419 27.90095199 457.26637675 33.85466567 451.50390625 40.56640625 C448.64232288 43.58183819 446.07842031 46.01513228 442.1875 47.60546875 C441.1975 47.60546875 440.2075 47.60546875 439.1875 47.60546875 C439.19638245 48.48607971 439.20526489 49.36669067 439.2144165 50.27398682 C439.29456201 58.57259234 439.35546416 66.87106791 439.39474869 75.16997147 C439.41562433 79.43656167 439.44394109 83.70283211 439.48925781 87.96923828 C439.5327171 92.08653659 439.55663728 96.20352732 439.56700897 100.32103729 C439.57440027 101.89195345 439.58883388 103.46285277 439.61042023 105.033638 C439.63945682 107.23405844 439.64345612 109.43320788 439.64160156 111.63378906 C439.65048401 112.88621399 439.65936646 114.13863892 439.66851807 115.42901611 C439.09972873 119.18507541 438.14514486 120.31062702 435.1875 122.60546875 C432.8354994 123.78146905 431.45015599 123.72631416 428.82958984 123.71899414 C427.47841568 123.71888084 427.47841568 123.71888084 426.09994507 123.71876526 C425.12594757 123.71360397 424.15195007 123.70844269 423.1484375 123.703125 C422.15244537 123.70171005 421.15645325 123.7002951 420.13027954 123.69883728 C416.94098947 123.69322811 413.75176894 123.68067405 410.5625 123.66796875 C408.40364685 123.66295493 406.24479259 123.65839182 404.0859375 123.65429688 C398.78643143 123.6432557 393.48697752 123.62598489 388.1875 123.60546875 C388.1875 128.22546875 388.1875 132.84546875 388.1875 137.60546875 C390.06977295 137.5897583 391.9520459 137.57404785 393.89135742 137.55786133 C400.11786734 137.50944078 406.34433261 137.47499399 412.57097912 137.45003223 C416.34535956 137.43439164 420.11953586 137.41318314 423.89379883 137.37915039 C427.53776868 137.34649899 431.18154247 137.32860365 434.82564735 137.32083702 C436.21429848 137.31530383 437.60293916 137.30449872 438.99150658 137.28827858 C440.93978745 137.26643019 442.88826658 137.26524271 444.83666992 137.26489258 C445.9447551 137.25823074 447.05284027 137.25156891 448.19450378 137.2447052 C451.58515229 137.65340013 453.45894428 138.5848383 456.1875 140.60546875 C457.34031023 142.91108921 457.32276593 144.23946451 457.34140015 146.80526733 C457.35000061 147.6857222 457.35860107 148.56617706 457.36746216 149.47331238 C457.37385208 150.9258416 457.37385208 150.9258416 457.38037109 152.40771484 C457.38854858 153.42570663 457.39672607 154.44369843 457.40515137 155.49253845 C457.43002538 158.87132167 457.44652482 162.25006288 457.4609375 165.62890625 C457.46626118 166.78049854 457.47158485 167.93209084 457.47706985 169.11857986 C457.50380767 175.21153346 457.52318228 181.3044665 457.53759766 187.39746094 C457.5542647 193.70176918 457.59905844 200.00555661 457.6499691 206.30966759 C457.68356225 211.1480268 457.69516631 215.98626107 457.70082474 220.8247261 C457.70755706 223.14922704 457.72283008 225.47371919 457.74671555 227.79810715 C457.77820454 231.04731971 457.77842814 234.2951096 457.77099609 237.54443359 C457.78740143 238.50873795 457.80380676 239.4730423 457.82070923 240.46656799 C457.76029716 246.90173343 457.76029716 246.90173343 455.07090759 250.2059021 C451.61876979 251.88152263 449.30371443 252.08845342 445.46948242 252.05957031 C444.48815338 252.06044647 444.48815338 252.06044647 443.48699951 252.06134033 C441.33843727 252.05856785 439.19128663 252.02751954 437.04296875 251.99609375 C435.54796608 251.98862829 434.05295359 251.98293679 432.55793762 251.97894287 C428.63352176 251.9637103 424.70970321 251.92444993 420.78552246 251.88012695 C416.77701904 251.83912236 412.76841857 251.82092084 408.75976562 251.80078125 C400.90207041 251.75795254 393.04485963 251.689731 385.1875 251.60546875 C385.05472656 252.48589844 384.92195313 253.36632812 384.78515625 254.2734375 C384.60855469 255.43488281 384.43195313 256.59632813 384.25 257.79296875 C383.98896484 259.51580078 383.98896484 259.51580078 383.72265625 261.2734375 C383.27370687 264.06872087 382.76667838 266.83480461 382.1875 269.60546875 C382.8278569 269.5965863 383.46821381 269.58770386 384.12797546 269.57855225 C390.7951057 269.49003204 397.46206889 269.42971482 404.12963867 269.38574219 C406.61766338 269.3656317 409.10564086 269.33833948 411.59350586 269.30371094 C415.17052875 269.25517022 418.74692651 269.2324938 422.32421875 269.21484375 C423.43584885 269.19419861 424.54747894 269.17355347 425.6927948 269.15228271 C427.25384697 269.15182953 427.25384697 269.15182953 428.84643555 269.15136719 C429.7591069 269.14248474 430.67177826 269.13360229 431.61210632 269.12445068 C435.16390065 269.78783557 436.75359952 270.94418291 439.1875 273.60546875 C439.78877258 276.78192139 439.78877258 276.78192139 439.75512695 280.57714844 C439.75585709 281.27023605 439.75658722 281.96332367 439.75733948 282.67741394 C439.75386417 284.96152841 439.7150116 287.24358698 439.67578125 289.52734375 C439.66645278 291.11345302 439.65933682 292.69957673 439.65434265 294.28570557 C439.63527514 298.45522009 439.58617763 302.62386016 439.53082275 306.79302979 C439.47962425 311.04939952 439.4568274 315.30591092 439.43164062 319.5625 C439.37805761 327.91055701 439.29274908 336.25790403 439.1875 344.60546875 C440.1374585 344.91162109 441.08741699 345.21777344 442.06616211 345.53320312 C448.10384523 347.60731374 451.91294334 351.58973132 455.125 357.04296875 C458.39587536 364.20207011 458.54005468 372.5294106 456.5234375 380.09765625 C453.37086121 387.14297892 447.33029482 392.81046208 440.1875 395.60546875 C431.64153316 398.14616159 423.97088497 396.6299835 416.1875 392.60546875 C409.62846494 388.39778588 406.29072498 382.35678123 404.55078125 374.86328125 C403.54082936 367.19633465 404.45442331 360.48836405 408.9609375 354.0859375 C412.89626755 349.41932965 415.51068229 347.44387761 421.1875 344.60546875 C421.5175 325.46546875 421.8475 306.32546875 422.1875 286.60546875 C407.0075 286.60546875 391.8275 286.60546875 376.1875 286.60546875 C375.8575 288.25546875 375.5275 289.90546875 375.1875 291.60546875 C365.16062096 319.97473483 348.35232757 343.82266926 327.984375 365.66015625 C327.51990967 366.1694165 327.05544434 366.67867676 326.5769043 367.20336914 C325.1875 368.60546875 325.1875 368.60546875 322.37890625 370.65625 C318.74878636 375.54170547 319.40366902 380.99622339 319.375 386.91796875 C319.34986328 388.13548828 319.32472656 389.35300781 319.29882812 390.60742188 C319.24001099 393.60709562 319.20368961 396.60531173 319.1875 399.60546875 C320.47011719 399.85941406 321.75273437 400.11335938 323.07421875 400.375 C329.1381837 401.72030493 334.76880104 403.99898745 340.52148438 406.30273438 C341.32521484 406.61275391 342.12894531 406.92277344 342.95703125 407.2421875 C344.03368042 407.67084106 344.03368042 407.67084106 345.13208008 408.1081543 C347.57865352 408.70010941 348.84994623 408.50637283 351.1875 407.60546875 C352.074375 406.82171875 352.96125 406.03796875 353.875 405.23046875 C358.94660231 400.82315692 365.48611223 399.00659314 372.15625 399.32421875 C379.47000102 400.33689197 386.05077909 403.22254335 391.1875 408.60546875 C395.9414949 416.07266173 398.26638771 423.08898701 396.796875 431.96484375 C394.89543744 439.81436805 390.7207613 445.37116117 384.15625 450.0546875 C376.94203566 453.89060371 368.00398534 454.06657705 360.27734375 451.72265625 C353.15306082 448.47750777 349.01156021 443.94957914 345.3125 437.16796875 C343.99652572 433.00071686 343.95907152 429.94560983 344.1875 425.60546875 C343.01960938 425.38761719 341.85171875 425.16976563 340.6484375 424.9453125 C334.1953774 423.50835023 328.04591004 421.20337148 321.85595703 418.91967773 C319.79954695 418.16320382 317.73801754 417.42206211 315.67578125 416.68164062 C314.35904071 416.20013192 313.04262214 415.71774163 311.7265625 415.234375 C310.54271973 414.8019751 309.35887695 414.3695752 308.13916016 413.92407227 C303.82397533 411.9963375 303.82397533 411.9963375 302.1875 409.60546875 C301.75512695 407.3371582 301.75512695 407.3371582 301.67578125 404.71875 C301.62260742 403.31206055 301.62260742 403.31206055 301.56835938 401.87695312 C301.54580078 400.90048828 301.52324219 399.92402344 301.5 398.91796875 C301.46583984 397.92990234 301.43167969 396.94183594 301.39648438 395.92382812 C301.31399462 393.48448822 301.24484932 391.04550812 301.1875 388.60546875 C300.37152344 389.188125 299.55554688 389.77078125 298.71484375 390.37109375 C274.09883862 407.56813809 246.62559678 418.85716132 217.1875 424.60546875 C216.14464844 424.83492188 215.10179687 425.064375 214.02734375 425.30078125 C183.63415356 430.11121423 143.37122074 408.03446028 119.1875 391.60546875 C117.85019258 390.61078959 116.51601571 389.61186022 115.1875 388.60546875 C115.18339111 389.22067383 115.17928223 389.83587891 115.17504883 390.46972656 C115.14208704 393.26594106 115.07144424 396.05998379 115 398.85546875 C114.99129883 400.30759766 114.99129883 400.30759766 114.98242188 401.7890625 C114.95341797 402.72363281 114.92441406 403.65820312 114.89453125 404.62109375 C114.8788208 405.47993164 114.86311035 406.33876953 114.84692383 407.22363281 C113.8774582 410.72533835 112.22386002 411.67001266 109.1875 413.60546875 C106.57711717 414.72075368 104.04414065 415.70732773 101.3671875 416.62109375 C100.62671173 416.8817865 99.88623596 417.14247925 99.12332153 417.41107178 C97.56677079 417.95682598 96.00853171 418.49778621 94.44873047 419.03417969 C92.05937708 419.85654359 89.67596185 420.69456144 87.29296875 421.53515625 C85.77636401 422.06472613 84.25944723 422.59340341 82.7421875 423.12109375 C82.02964813 423.37103088 81.31710876 423.62096802 80.58297729 423.878479 C77.65399106 424.88078221 75.30684708 425.60546875 72.1875 425.60546875 C72.290625 426.71921875 72.39375 427.83296875 72.5 428.98046875 C72.47758887 435.30040756 69.68366033 440.77727759 65.54296875 445.46875 C58.49531678 451.88004513 52.10324957 453.25141141 42.6953125 453.01171875 C34.60636175 452.07491376 28.63593747 448.15039059 23.59375 441.84765625 C19.98775551 436.09809837 18.36092941 429.336115 19.1875 422.60546875 C21.61786957 413.69411367 24.54393324 407.56026405 32.6875 402.79296875 C39.06494974 399.32354627 45.94415693 398.51041247 52.97265625 400.32421875 C61.05559484 403.02215788 61.05559484 403.02215788 64.0625 406.41796875 C65.114375 407.50078125 65.114375 407.50078125 66.1875 408.60546875 C69.83205545 408.21185056 73.16412525 406.99279281 76.6015625 405.7578125 C77.60960938 405.40009766 78.61765625 405.04238281 79.65625 404.67382812 C81.76858093 403.91699668 83.88055784 403.15917647 85.9921875 402.40039062 C86.99765625 402.04396484 88.003125 401.68753906 89.0390625 401.3203125 C90.41312256 400.82712524 90.41312256 400.82712524 91.81494141 400.32397461 C94.1875 399.60546875 94.1875 399.60546875 97.1875 399.60546875 C98.70997649 383.57613876 98.70997649 383.57613876 93.3203125 369.1484375 C90.42803716 366.14828049 87.22075032 363.55665542 83.92333984 361.015625 C79.66362642 357.55513207 76.50169851 352.93987427 73.1875 348.60546875 C72.77467773 348.07969238 72.36185547 347.55391602 71.93652344 347.01220703 C60.24022214 332.08232428 40.1875 306.10758005 40.1875 286.60546875 C25.0075 286.60546875 9.8275 286.60546875 -5.8125 286.60546875 C-5.87085271 294.06061061 -5.9205788 301.50707685 -5.8874588 308.96095276 C-5.87450305 312.43210923 -5.87726778 315.90158899 -5.91870117 319.37255859 C-5.96556129 323.35966296 -5.9396554 327.34473184 -5.91015625 331.33203125 C-5.93473404 332.56974274 -5.95931183 333.80745422 -5.9846344 335.08267212 C-6.02711299 341.46638008 -6.02711299 341.46638008 -2.81906128 346.67205811 C-0.54358726 348.1786629 1.75452058 349.37890852 4.1875 350.60546875 C10.30492435 357.04486281 12.36625314 363.8465651 12.1875 372.60546875 C11.12338492 379.62036333 8.30323995 385.64408303 3.1875 390.60546875 C-3.87475744 395.53433592 -10.26252623 397.33400349 -18.8125 396.60546875 C-27.18781857 395.05816413 -33.42931837 390.3090419 -38.25 383.35546875 C-41.91937987 376.89736017 -41.44380073 369.80374836 -40.8125 362.60546875 C-38.84486918 355.82905408 -34.92417385 350.24541937 -28.8125 346.60546875 C-26.8186813 345.92053705 -24.81905429 345.25214047 -22.8125 344.60546875 C-22.82360306 343.72485779 -22.83470612 342.84424683 -22.84614563 341.93695068 C-22.94632713 333.63837667 -23.02245439 325.34000571 -23.07156086 317.04096603 C-23.09765599 312.77428138 -23.13305148 308.50809632 -23.18969727 304.24169922 C-23.24402161 300.12438295 -23.27392117 296.0075472 -23.28688622 291.88990021 C-23.29612549 290.31895634 -23.31416814 288.74803881 -23.34115028 287.1772995 C-23.37744946 284.97667105 -23.38244547 282.77802806 -23.38012695 280.57714844 C-23.39123001 279.32472351 -23.40233307 278.07229858 -23.41377258 276.78192139 C-22.8125 273.60546875 -22.8125 273.60546875 -20.61083984 271.19812012 C-17.55849199 269.46090225 -15.94837046 269.1175284 -12.47143555 269.15136719 C-11.4307341 269.15166931 -10.39003265 269.15197144 -9.3177948 269.15228271 C-8.2061647 269.17292786 -7.09453461 269.193573 -5.94921875 269.21484375 C-4.80209915 269.22050354 -3.65497955 269.22616333 -2.47309875 269.23199463 C1.18502813 269.25435678 4.84216994 269.30455548 8.5 269.35546875 C10.98240771 269.37553384 13.4648308 269.39378459 15.94726562 269.41015625 C22.02767895 269.45422116 28.10751909 269.52113281 34.1875 269.60546875 C33.86265625 268.03345703 33.86265625 268.03345703 33.53125 266.4296875 C33.24984693 265.05081248 32.96860536 263.67190449 32.6875 262.29296875 C32.54441406 261.60267578 32.40132813 260.91238281 32.25390625 260.20117188 C31.66124956 257.28022102 31.1875 254.59438753 31.1875 251.60546875 C30.35922195 251.6143512 29.53094391 251.62323364 28.67756653 251.63238525 C20.86490898 251.7125937 13.05239008 251.77346481 5.23941517 251.81271744 C1.22282635 251.83357628 -2.79342173 251.86186207 -6.80981445 251.90722656 C-10.68721672 251.95074621 -14.56429164 251.97461867 -18.44191933 251.98497772 C-19.91990626 251.99235822 -21.39787563 252.00677089 -22.87572289 252.02838898 C-24.94903391 252.05750636 -27.02099923 252.06142158 -29.09448242 252.05957031 C-30.27362717 252.06845276 -31.45277191 252.07733521 -32.66764832 252.08648682 C-36.69765298 251.47008094 -38.22045031 250.78463749 -40.8125 247.60546875 C-41.54165375 244.26285831 -41.47478409 240.98577611 -41.42773438 237.57617188 C-41.43328339 236.55788803 -41.4388324 235.53960419 -41.44454956 234.49046326 C-41.45636731 231.12207084 -41.43204784 227.75501723 -41.40625 224.38671875 C-41.40453943 222.04789288 -41.40460404 219.70906509 -41.40637207 217.37023926 C-41.40471761 212.46750559 -41.38599557 207.5652285 -41.35449219 202.66259766 C-41.31481465 196.37411465 -41.31044624 190.08622998 -41.31795502 183.79764557 C-41.32102267 178.96781927 -41.30891139 174.13812783 -41.29182434 169.30833435 C-41.28478654 166.98946478 -41.28167075 164.67057992 -41.28251648 162.35169983 C-41.28072137 159.1124401 -41.25936328 155.87390098 -41.23242188 152.63476562 C-41.23535248 151.67360336 -41.23828308 150.7124411 -41.24130249 149.72215271 C-41.2242778 148.39734642 -41.2242778 148.39734642 -41.20690918 147.04577637 C-41.20318047 146.28035271 -41.19945175 145.51492905 -41.19561005 144.72631073 C-40.70262071 141.99719286 -39.69119056 140.62214355 -37.8125 138.60546875 C-34.53362251 137.51250959 -32.13982427 137.48505493 -28.6887207 137.49194336 C-27.42763992 137.49201889 -26.16655914 137.49209442 -24.86726379 137.49217224 C-23.49093588 137.49727886 -22.11460837 137.50249486 -20.73828125 137.5078125 C-19.33009389 137.50967789 -17.92190589 137.51110122 -16.51371765 137.51210022 C-12.8098267 137.51591587 -9.10597505 137.52573803 -5.40209961 137.5368042 C-1.62158744 137.54703878 2.15893109 137.55160223 5.93945312 137.55664062 C13.35548873 137.56736116 20.77148385 137.58495025 28.1875 137.60546875 C28.1875 132.98546875 28.1875 128.36546875 28.1875 123.60546875 C26.18200073 123.62903442 26.18200073 123.62903442 24.13598633 123.65307617 C19.16941364 123.70742964 14.20286719 123.74183874 9.23608398 123.77026367 C7.08760149 123.7853379 4.9391497 123.80580064 2.79077148 123.83178711 C-0.29971908 123.86822989 -3.38980231 123.88520894 -6.48046875 123.8984375 C-7.43898239 123.91392136 -8.39749603 123.92940521 -9.38505554 123.94535828 C-14.31937321 123.94659982 -17.85427029 123.92340401 -21.8125 120.60546875 C-23.27291228 117.6846442 -22.93178796 115.12245506 -22.92602539 111.86083984 C-22.92617142 111.16804428 -22.92631744 110.47524872 -22.9264679 109.76145935 C-22.92577018 107.46724334 -22.91798442 105.17310811 -22.91015625 102.87890625 C-22.90829157 101.28992762 -22.9068679 99.70094841 -22.90586853 98.11196899 C-22.90204731 93.9263755 -22.89222039 89.74081662 -22.88116455 85.55523682 C-22.87094194 81.28552722 -22.86636909 77.01581205 -22.86132812 72.74609375 C-22.85059778 64.36586952 -22.83352608 55.98567344 -22.8125 47.60546875 C-23.59423584 47.46971436 -24.37597168 47.33395996 -25.18139648 47.1940918 C-30.70898474 45.95747537 -35.11556885 40.91984112 -38.25 36.35546875 C-41.91937987 29.89736017 -41.44380073 22.80374836 -40.8125 15.60546875 C-38.33401618 7.06970386 -33.10728875 2.23493125 -25.75 -2.26953125 C-17.4226722 -5.38290155 -7.57936835 -4.45038569 0 0 Z M201.59765625 55.09765625 C200.43451904 55.63310059 199.27138184 56.16854492 198.07299805 56.72021484 C197.4508139 57.00725281 196.82862976 57.29429077 196.18759155 57.59002686 C158.21890544 75.03896172 120.9153811 85.91334739 79.1875 88.60546875 C79.1875 104.77546875 79.1875 120.94546875 79.1875 137.60546875 C164.3275 137.60546875 249.4675 137.60546875 337.1875 137.60546875 C337.1875 121.43546875 337.1875 105.26546875 337.1875 88.60546875 C333.43375 88.37859375 329.68 88.15171875 325.8125 87.91796875 C286.6402406 85.05853505 250.47743893 71.66124636 215.09936523 55.24609375 C209.04844092 52.44988701 207.55406029 52.32323695 201.59765625 55.09765625 Z M82.1875 251.60546875 C85.22862135 265.34296851 85.22862135 265.34296851 89.9375 278.23046875 C90.28184082 279.01768311 90.62618164 279.80489746 90.98095703 280.6159668 C99.6385551 300.09064113 110.75225551 316.17022426 125.83203125 331.25 C127.13823112 332.55619987 128.43352772 333.87468233 129.6796875 335.23828125 C147.13407166 354.07323817 172.65406009 365.49485306 196.8125 372.66796875 C197.50980225 372.88428955 198.20710449 373.10061035 198.92553711 373.32348633 C207.74237535 375.76147171 216.14235748 373.68256775 224.6875 371.04296875 C225.54698242 370.7790332 226.40646484 370.51509766 227.29199219 370.24316406 C248.34985489 363.55874159 266.29752365 352.70772613 283.1875 338.60546875 C284.05375 337.88230469 284.92 337.15914063 285.8125 336.4140625 C290.73910326 332.1615384 295.07256209 327.64128994 299.1875 322.60546875 C299.59226562 322.11836426 299.99703125 321.63125977 300.4140625 321.12939453 C316.95338663 301.15042295 329.88578982 277.41572982 334.1875 251.60546875 C251.0275 251.60546875 167.8675 251.60546875 82.1875 251.60546875 Z " fill="#6699FF" transform="translate(47.8125,31.39453125)"/>
<path d="M0 0 C153.78 0 307.56 0 466 0 C466 26.4 466 52.8 466 80 C312.22 80 158.44 80 0 80 C0 53.6 0 27.2 0 0 Z " fill="#9AC8FF" transform="translate(23,186)"/>
<path d="M0 0 C1.1348584 0.51868652 2.2697168 1.03737305 3.43896484 1.57177734 C4.03843933 1.84640808 4.63791382 2.12103882 5.2555542 2.4039917 C32.49846154 14.84648185 60.46849779 27.15796968 90.125 32.3828125 C91.16398437 32.58648437 92.20296875 32.79015625 93.2734375 33 C106.54794725 35.30175585 120.82218952 35.47234268 134.125 33.3828125 C136.51722223 33.2013872 138.91437176 33.07580741 141.3125 33.0078125 C142.50230469 32.95882812 143.69210937 32.90984375 144.91796875 32.859375 C148.125 33.3828125 148.125 33.3828125 150.29705811 35.42106628 C152.57692729 39.11505347 152.66194594 42.08844487 152.57910156 46.29418945 C152.57968567 47.07520523 152.58026978 47.85622101 152.58087158 48.66090393 C152.57809435 51.23142608 152.54702075 53.80077526 152.515625 56.37109375 C152.5081613 58.1575609 152.50246897 59.94403625 152.49847412 61.73051453 C152.48322793 66.42427314 152.44395498 71.11753382 152.3996582 75.81109619 C152.35868354 80.60381332 152.34045842 85.39661119 152.3203125 90.18945312 C152.27745949 99.58749315 152.20711805 108.98503345 152.125 118.3828125 C146.515 118.3828125 140.905 118.3828125 135.125 118.3828125 C135.10312622 115.58913208 135.10312622 115.58913208 135.08081055 112.73901367 C135.02918203 106.58812886 134.96390252 100.43750776 134.88928509 94.28686047 C134.84454129 90.55739181 134.80529441 86.82803339 134.77856445 83.09838867 C134.75257087 79.49960698 134.71219752 75.90124864 134.66181374 72.30272865 C134.64511809 70.92925593 134.6336206 69.55570993 134.62738609 68.18214989 C134.61777525 66.2595806 134.58803335 64.33714373 134.55737305 62.41479492 C134.54626999 61.32003342 134.53516693 60.22527191 134.52372742 59.09733582 C134.34306094 56.36730731 134.34306094 56.36730731 132.7381134 54.53085327 C130.52246137 52.95399026 128.95612166 52.98331299 126.25 52.94140625 C125.27522705 52.91675293 124.3004541 52.89209961 123.29614258 52.86669922 C122.24966553 52.8513916 121.20318848 52.83608398 120.125 52.8203125 C117.92044989 52.75259092 115.71601726 52.68093735 113.51171875 52.60546875 C111.87468994 52.55156982 111.87468994 52.55156982 110.20458984 52.49658203 C79.11719085 51.34811779 49.21551846 41.39235067 20.94140625 28.9609375 C20.06280945 28.57477264 19.18421265 28.18860779 18.2789917 27.79074097 C13.90175678 25.86004999 9.53621039 23.90705316 5.18408203 21.92041016 C4.37027573 21.55461853 3.55646942 21.1888269 2.71800232 20.81195068 C1.19019953 20.1252086 -0.33309529 19.42830849 -1.85069275 18.71929932 C-7.17184838 16.34413863 -11.68691096 15.34003091 -17.4284668 17.21801758 C-18.21906494 17.60884521 -19.00966309 17.99967285 -19.82421875 18.40234375 C-20.73969482 18.8420752 -21.6551709 19.28180664 -22.59838867 19.73486328 C-24.06562378 20.45778564 -24.06562378 20.45778564 -25.5625 21.1953125 C-52.57665483 33.99291674 -82.04141069 46.29647454 -111.875 50.3828125 C-113.07382813 50.57230469 -114.27265625 50.76179688 -115.5078125 50.95703125 C-125.17331467 52.35624666 -134.77528039 52.73332593 -144.53491211 52.86572266 C-146.08964233 52.90318604 -146.08964233 52.90318604 -147.67578125 52.94140625 C-149.07050659 52.96158813 -149.07050659 52.96158813 -150.4934082 52.98217773 C-153.4174129 53.47405797 -154.11686155 54.0202653 -155.875 56.3828125 C-156.34944701 59.18715227 -156.34944701 59.18715227 -156.30737305 62.41479492 C-156.32716721 63.65585495 -156.34696136 64.89691498 -156.36735535 66.17558289 C-156.37412509 67.52981413 -156.38057196 68.88404703 -156.38671875 70.23828125 C-156.40356405 71.62406511 -156.42171409 73.00983368 -156.44111633 74.39558411 C-156.48863938 78.04022442 -156.51843344 81.68480273 -156.54455566 85.32965088 C-156.57434983 89.04996996 -156.620884 92.77007534 -156.66601562 96.49023438 C-156.75207499 103.78767281 -156.81786068 111.08507982 -156.875 118.3828125 C-162.485 118.3828125 -168.095 118.3828125 -173.875 118.3828125 C-173.9653891 108.03847573 -174.03876668 97.6944015 -174.08224869 87.3497591 C-174.10311847 82.54625584 -174.13142499 77.7430369 -174.17675781 72.93969727 C-174.2202373 68.30368953 -174.24414169 63.66795517 -174.25450897 59.03175926 C-174.26189657 57.26350793 -174.27632293 55.49527147 -174.29792023 53.72713661 C-174.32698273 51.24915934 -174.3309549 48.77230989 -174.32910156 46.29418945 C-174.34348267 45.56410675 -174.35786377 44.83402405 -174.37268066 44.08181763 C-174.34384651 40.51596753 -173.94810816 38.50093431 -172.05535889 35.4427948 C-169.05401171 32.60715059 -166.9548554 32.52650004 -162.875 32.3828125 C-160.67771427 32.61679519 -158.48827953 32.93457175 -156.3125 33.3203125 C-111.48834281 39.780655 -66.94466802 21.14896683 -27.21875 2.25390625 C-26.21271729 1.77808105 -25.20668457 1.30225586 -24.17016602 0.81201172 C-22.32045645 -0.07262512 -20.47903448 -0.97489526 -18.64819336 -1.89794922 C-17.83487549 -2.28869629 -17.02155762 -2.67944336 -16.18359375 -3.08203125 C-15.49064209 -3.4287085 -14.79769043 -3.77538574 -14.08374023 -4.13256836 C-9.24243469 -5.19479799 -4.32431602 -1.99438017 0 0 Z " fill="#9AC8FF" transform="translate(266.875,51.6171875)"/>
<path d="M0 0 C5.61 0 11.22 0 17 0 C17.4846875 1.81242187 17.969375 3.62484375 18.46875 5.4921875 C22.30158873 19.53788002 26.41918777 32.95832137 33 46 C33.31936523 46.65210449 33.63873047 47.30420898 33.96777344 47.97607422 C54.15420581 89.05597644 91.27342512 119.3566024 134.22998047 134.10253906 C138.84102076 135.59647385 143.48587972 136.88688402 148.1875 138.0625 C149.44167725 138.3867395 149.44167725 138.3867395 150.72119141 138.7175293 C161.27124561 141.16503239 170.36006365 138.63467557 180.5 135.4375 C182.21304321 134.90068604 182.21304321 134.90068604 183.96069336 134.35302734 C211.05516174 125.65613155 233.46061059 111.52730356 254 92 C254.68320312 91.38125 255.36640625 90.7625 256.0703125 90.125 C281.38083748 66.40300169 294.62854141 32.84187601 303 0 C308.61 0 314.22 0 320 0 C316.73474484 39.18306186 294.517603 75.1907086 268 103 C267.16210938 103.90234375 266.32421875 104.8046875 265.4609375 105.734375 C239.60567526 132.76132586 197.39912728 156.32338636 159.484375 158.2578125 C144.52861777 157.90696447 128.64065545 151.90451224 115 146 C114.27039063 145.68724121 113.54078125 145.37448242 112.7890625 145.05224609 C63.93535786 123.80211826 28.15057655 84.38937277 8.73120117 35.23364258 C4.36295591 23.93010951 0 12.23970234 0 0 Z " fill="#9AC8FF" transform="translate(96,282)"/>
<path d="M0 0 C2.8125 1.6875 2.8125 1.6875 5 5 C5.71321146 9.33171078 5.92936872 13.61443963 6 18 C6.556875 17.6390625 7.11375 17.278125 7.6875 16.90625 C13.06087258 13.63865857 16.69573671 11.9314808 23 13 C25.5625 15.0625 25.5625 15.0625 27 18 C27.0625 21.5625 27.0625 21.5625 26 25 C23.75 27.25 23.75 27.25 21 29 C20.113125 29.5775 19.22625 30.155 18.3125 30.75 C16 32 16 32 14 32 C14 32.66 14 33.32 14 34 C14.680625 34.226875 15.36125 34.45375 16.0625 34.6875 C19.78625006 36.35130322 23.11662051 38.07048644 26 41 C27.1875 44.5 27.1875 44.5 27 48 C25.09972966 51.64218481 23.70908643 52.73054716 19.875 54.1875 C14.23956508 53.91481767 10.55147272 51.15947301 6 48 C5.96132813 49.32064453 5.96132813 49.32064453 5.921875 50.66796875 C5.83679688 52.41013672 5.83679688 52.41013672 5.75 54.1875 C5.70359375 55.33605469 5.6571875 56.48460937 5.609375 57.66796875 C4.89844854 61.55527816 3.83647741 63.27919454 1 66 C-1 66.6640625 -1 66.6640625 -3 66.625 C-3.66 66.63789063 -4.32 66.65078125 -5 66.6640625 C-8.18265728 65.60732082 -9.25516389 63.80311714 -11 61 C-11.609375 57.66796875 -11.609375 57.66796875 -11.75 54.1875 C-11.80671875 53.02605469 -11.8634375 51.86460937 -11.921875 50.66796875 C-11.94765625 49.78753906 -11.9734375 48.90710938 -12 48 C-12.64066406 48.44472656 -13.28132813 48.88945312 -13.94140625 49.34765625 C-20.97671097 53.95048601 -20.97671097 53.95048601 -25.875 54.1875 C-29.70908643 52.73054716 -31.09972966 51.64218481 -33 48 C-33.3125 44.5625 -33.3125 44.5625 -32 41 C-29.85192306 39.18239643 -27.65950139 37.77000407 -25.2265625 36.359375 C-23.13979572 35.08534897 -21.63913318 33.79775897 -20 32 C-20.70125 31.7525 -21.4025 31.505 -22.125 31.25 C-26.71045347 29.25632458 -30.20658691 27.19011964 -33 23 C-32.82135713 19.66533315 -32.55604977 17.0139731 -30.9375 14.0625 C-27.66845173 12.26979611 -24.55924209 12.31505994 -21 13 C-17.82713632 14.41452746 -14.91274192 16.11211172 -12 18 C-11.97873047 16.67935547 -11.97873047 16.67935547 -11.95703125 15.33203125 C-11.56806654 5.86021505 -11.56806654 5.86021505 -8.8125 1.6875 C-5.42001209 -0.34799275 -3.88179633 -0.80870757 0 0 Z " fill="#6699FF" transform="translate(347,193)"/>
<path d="M0 0 C2.8125 1.6875 2.8125 1.6875 5 5 C5.71321146 9.33171078 5.92936872 13.61443963 6 18 C6.556875 17.6390625 7.11375 17.278125 7.6875 16.90625 C13.06087258 13.63865857 16.69573671 11.9314808 23 13 C25.5625 15.0625 25.5625 15.0625 27 18 C27.0625 21.5625 27.0625 21.5625 26 25 C23.75 27.25 23.75 27.25 21 29 C20.113125 29.5775 19.22625 30.155 18.3125 30.75 C16 32 16 32 14 32 C16.2935921 34.51555262 18.69091791 36.04880582 21.625 37.75 C25.03044385 39.98881545 25.85298253 40.60095258 27.3125 44.5625 C26.92853107 48.7861582 26.2289742 50.25537193 23 53 C19.875 54.1875 19.875 54.1875 16 54 C12.45609999 52.2927197 9.22832215 50.24098821 6 48 C5.96132813 49.32064453 5.96132813 49.32064453 5.921875 50.66796875 C5.83679688 52.41013672 5.83679688 52.41013672 5.75 54.1875 C5.70359375 55.33605469 5.6571875 56.48460937 5.609375 57.66796875 C4.89844854 61.55527816 3.83647741 63.27919454 1 66 C-1 66.6640625 -1 66.6640625 -3 66.625 C-3.66 66.63789063 -4.32 66.65078125 -5 66.6640625 C-8.18265728 65.60732082 -9.25516389 63.80311714 -11 61 C-11.609375 57.66796875 -11.609375 57.66796875 -11.75 54.1875 C-11.80671875 53.02605469 -11.8634375 51.86460937 -11.921875 50.66796875 C-11.94765625 49.78753906 -11.9734375 48.90710938 -12 48 C-12.64066406 48.44472656 -13.28132813 48.88945312 -13.94140625 49.34765625 C-20.97671097 53.95048601 -20.97671097 53.95048601 -25.875 54.1875 C-29.70908643 52.73054716 -31.09972966 51.64218481 -33 48 C-33.3125 44.5625 -33.3125 44.5625 -32 41 C-29.85192306 39.18239643 -27.65950139 37.77000407 -25.2265625 36.359375 C-23.13979572 35.08534897 -21.63913318 33.79775897 -20 32 C-20.70125 31.7525 -21.4025 31.505 -22.125 31.25 C-26.71045347 29.25632458 -30.20658691 27.19011964 -33 23 C-32.82135713 19.66533315 -32.55604977 17.0139731 -30.9375 14.0625 C-27.66845173 12.26979611 -24.55924209 12.31505994 -21 13 C-17.82713632 14.41452746 -14.91274192 16.11211172 -12 18 C-11.97873047 16.67935547 -11.97873047 16.67935547 -11.95703125 15.33203125 C-11.56806654 5.86021505 -11.56806654 5.86021505 -8.8125 1.6875 C-5.42001209 -0.34799275 -3.88179633 -0.80870757 0 0 Z " fill="#6699FF" transform="translate(259,193)"/>
<path d="M0 0 C2.8125 1.6875 2.8125 1.6875 5 5 C5.71321146 9.33171078 5.92936872 13.61443963 6 18 C6.556875 17.6390625 7.11375 17.278125 7.6875 16.90625 C13.06087258 13.63865857 16.69573671 11.9314808 23 13 C25.5625 15.0625 25.5625 15.0625 27 18 C27.0625 21.5625 27.0625 21.5625 26 25 C23.75 27.25 23.75 27.25 21 29 C20.113125 29.5775 19.22625 30.155 18.3125 30.75 C16 32 16 32 14 32 C16.2935921 34.51555262 18.69091791 36.04880582 21.625 37.75 C25.03044385 39.98881545 25.85298253 40.60095258 27.3125 44.5625 C26.92853107 48.7861582 26.2289742 50.25537193 23 53 C19.875 54.1875 19.875 54.1875 16 54 C12.45609999 52.2927197 9.22832215 50.24098821 6 48 C5.96261719 48.80824219 5.92523438 49.61648437 5.88671875 50.44921875 C5.82097656 51.51785156 5.75523438 52.58648437 5.6875 53.6875 C5.60048828 55.27111328 5.60048828 55.27111328 5.51171875 56.88671875 C4.95643103 60.26507231 4.0073475 62.24919046 2 65 C-1.12860495 66.56430248 -3.55602925 66.35627284 -7 66 C-10.85059004 62.29432464 -11.53782559 59.43881656 -11.75 54.1875 C-11.80671875 53.02605469 -11.8634375 51.86460937 -11.921875 50.66796875 C-11.94765625 49.78753906 -11.9734375 48.90710938 -12 48 C-12.65226562 48.433125 -13.30453125 48.86625 -13.9765625 49.3125 C-21.01127089 53.79479207 -21.01127089 53.79479207 -25.3125 54.6875 C-29.13453723 53.70976955 -30.6718956 52.14978831 -33 49 C-33.625 46 -33.625 46 -33 43 C-29.64246056 38.72676798 -25.6524578 36.59463993 -21 34 C-20.67 33.34 -20.34 32.68 -20 32 C-20.70125 31.7525 -21.4025 31.505 -22.125 31.25 C-26.71045347 29.25632458 -30.20658691 27.19011964 -33 23 C-32.82135713 19.66533315 -32.55604977 17.0139731 -30.9375 14.0625 C-27.66845173 12.26979611 -24.55924209 12.31505994 -21 13 C-17.82713632 14.41452746 -14.91274192 16.11211172 -12 18 C-11.97873047 16.67935547 -11.97873047 16.67935547 -11.95703125 15.33203125 C-11.56806654 5.86021505 -11.56806654 5.86021505 -8.8125 1.6875 C-5.42001209 -0.34799275 -3.88179633 -0.80870757 0 0 Z " fill="#6699FF" transform="translate(83,193)"/>
<path d="M0 0 C2.8125 1.6875 2.8125 1.6875 5 5 C5.71321146 9.33171078 5.92936872 13.61443963 6 18 C6.556875 17.6390625 7.11375 17.278125 7.6875 16.90625 C13.06087258 13.63865857 16.69573671 11.9314808 23 13 C25.5625 15.0625 25.5625 15.0625 27 18 C27.0625 21.5625 27.0625 21.5625 26 25 C23.75 27.25 23.75 27.25 21 29 C20.113125 29.5775 19.22625 30.155 18.3125 30.75 C16 32 16 32 14 32 C16.2935921 34.51555262 18.69091791 36.04880582 21.625 37.75 C25.03044385 39.98881545 25.85298253 40.60095258 27.3125 44.5625 C26.92853107 48.7861582 26.2289742 50.25537193 23 53 C19.875 54.1875 19.875 54.1875 16 54 C12.45609999 52.2927197 9.22832215 50.24098821 6 48 C5.98582031 48.88042969 5.97164062 49.76085937 5.95703125 50.66796875 C5.56917658 60.11275416 5.56917658 60.11275416 2.875 64.3125 C-0.80066185 66.46995369 -2.80797383 66.76218658 -7 66 C-10.82957785 62.26702411 -11.5373229 59.45125812 -11.75 54.1875 C-11.80671875 53.02605469 -11.8634375 51.86460937 -11.921875 50.66796875 C-11.94765625 49.78753906 -11.9734375 48.90710938 -12 48 C-12.64066406 48.44472656 -13.28132813 48.88945312 -13.94140625 49.34765625 C-20.97671097 53.95048601 -20.97671097 53.95048601 -25.875 54.1875 C-29.70908643 52.73054716 -31.09972966 51.64218481 -33 48 C-33.3125 44.5625 -33.3125 44.5625 -32 41 C-29.85192306 39.18239643 -27.65950139 37.77000407 -25.2265625 36.359375 C-23.13979572 35.08534897 -21.63913318 33.79775897 -20 32 C-20.70125 31.7525 -21.4025 31.505 -22.125 31.25 C-26.71045347 29.25632458 -30.20658691 27.19011964 -33 23 C-32.82135713 19.66533315 -32.55604977 17.0139731 -30.9375 14.0625 C-27.66845173 12.26979611 -24.55924209 12.31505994 -21 13 C-17.82713632 14.41452746 -14.91274192 16.11211172 -12 18 C-11.97873047 16.67935547 -11.97873047 16.67935547 -11.95703125 15.33203125 C-11.56806654 5.86021505 -11.56806654 5.86021505 -8.8125 1.6875 C-5.42001209 -0.34799275 -3.88179633 -0.80870757 0 0 Z " fill="#6699FF" transform="translate(171,193)"/>
<path d="M0 0 C2.8125 1.6875 2.8125 1.6875 5 5 C5.71321146 9.33171078 5.92936872 13.61443963 6 18 C6.556875 17.6390625 7.11375 17.278125 7.6875 16.90625 C13.06087258 13.63865857 16.69573671 11.9314808 23 13 C25.5625 15.0625 25.5625 15.0625 27 18 C27.0625 21.5625 27.0625 21.5625 26 25 C23.75 27.25 23.75 27.25 21 29 C20.113125 29.5775 19.22625 30.155 18.3125 30.75 C16 32 16 32 14 32 C14 32.66 14 33.32 14 34 C14.680625 34.226875 15.36125 34.45375 16.0625 34.6875 C20.13355042 36.50647997 24.94528984 38.89057968 27 43 C27.4375 45.8125 27.4375 45.8125 27 49 C22.5173881 53.79535226 22.5173881 53.79535226 18.625 54.3203125 C15.36211938 53.92216338 13.44605878 52.76547762 10.6875 51 C9.80449219 50.443125 8.92148437 49.88625 8.01171875 49.3125 C7.34785156 48.879375 6.68398438 48.44625 6 48 C5.96132813 49.32064453 5.96132813 49.32064453 5.921875 50.66796875 C5.83679688 52.41013672 5.83679688 52.41013672 5.75 54.1875 C5.70359375 55.33605469 5.6571875 56.48460937 5.609375 57.66796875 C4.9006407 61.54329157 3.8114466 63.2745149 1 66 C-2.78361865 66.54051695 -5.0090583 66.54762568 -8.375 64.6875 C-11.380558 61.56634362 -11.25128217 57.94725113 -11.5625 53.8125 C-11.68818359 52.18248047 -11.68818359 52.18248047 -11.81640625 50.51953125 C-11.87699219 49.68808594 -11.93757813 48.85664063 -12 48 C-12.64066406 48.44472656 -13.28132813 48.88945312 -13.94140625 49.34765625 C-20.97671097 53.95048601 -20.97671097 53.95048601 -25.875 54.1875 C-29.70908643 52.73054716 -31.09972966 51.64218481 -33 48 C-33.3125 44.5625 -33.3125 44.5625 -32 41 C-29.85192306 39.18239643 -27.65950139 37.77000407 -25.2265625 36.359375 C-23.13979572 35.08534897 -21.63913318 33.79775897 -20 32 C-20.70125 31.7525 -21.4025 31.505 -22.125 31.25 C-26.71045347 29.25632458 -30.20658691 27.19011964 -33 23 C-32.82135713 19.66533315 -32.55604977 17.0139731 -30.9375 14.0625 C-27.66845173 12.26979611 -24.55924209 12.31505994 -21 13 C-17.82713632 14.41452746 -14.91274192 16.11211172 -12 18 C-11.97873047 16.67935547 -11.97873047 16.67935547 -11.95703125 15.33203125 C-11.56806654 5.86021505 -11.56806654 5.86021505 -8.8125 1.6875 C-5.42001209 -0.34799275 -3.88179633 -0.80870757 0 0 Z " fill="#6699FF" transform="translate(435,193)"/>
<path d="M0 0 C3.61391202 2.92188632 5.74312565 5.11625474 6.375 9.75 C5.8528401 14.2753858 4.15770622 15.7671103 1 19 C-1.82001327 20.41000664 -3.87007255 20.24548451 -7 20 C-9.77428577 18.73896101 -11.48317435 17.68910086 -13.3125 15.25 C-14.31199111 11.9789382 -14.3581657 9.40257412 -14 6 C-10.33497368 0.38029298 -6.68644727 -1.17845431 0 0 Z " fill="#99C7FF" transform="translate(98,448)"/>
<path d="M0 0 C2.92937654 1.81310142 5.43647949 3.87295899 7 7 C7.59873168 12.26883876 6.25400021 14.8846468 3 19 C-0.21898839 20.60949419 -3.50946689 20.45470546 -7 20 C-9.9375 18.5625 -9.9375 18.5625 -12 16 C-13.04596503 12.9205387 -13.39716892 10.23329061 -13 7 C-10.02398428 1.37474675 -6.24630051 -0.72072698 0 0 Z " fill="#99C7FF" transform="translate(482,391)"/>
<path d="M0 0 C2.92937654 1.81310142 5.43647949 3.87295899 7 7 C7.12243863 11.53022942 6.81830145 14.98332245 3.9375 18.5625 C0.15515476 20.4134349 -2.86951604 20.99298503 -7 20 C-10.61391202 17.07811368 -12.74312565 14.88374526 -13.375 10.25 C-12.8528401 5.7246142 -11.15770622 4.2328897 -8 1 C-5.09704195 -0.45147903 -3.22738221 -0.37239025 0 0 Z " fill="#99C7FF" transform="translate(36,391)"/>
<path d="M0 0 C2.91269772 1.8578656 5.42832709 3.85665419 7 7 C7.4136968 11.65408901 6.81070393 14.25239476 4 18 C0.31106884 20.45928744 -2.71641421 20.69305579 -7 20 C-10.44312714 17.8755173 -11.71617547 16.85147359 -13 13 C-13.5 9.6875 -13.5 9.6875 -13 6 C-9.63702621 1.54843354 -5.69565484 -1.3330256 0 0 Z " fill="#99C7FF" transform="translate(482,44)"/>
<path d="M0 0 C2.84669025 1.59734122 5.01740458 3.40211635 7 6 C7.70771676 10.03398552 7.4111303 12.1190065 5.6875 15.8125 C4 18 4 18 1 20 C-2.0169088 20.34061873 -4.09407815 20.57212107 -7 20 C-10.61391202 17.07811368 -12.74312565 14.88374526 -13.375 10.25 C-12.8528401 5.7246142 -11.15770622 4.2328897 -8 1 C-5.04206277 -0.47896861 -3.29779776 -0.4355582 0 0 Z " fill="#99C7FF" transform="translate(36,44)"/>
<path d="M0 0 C2.8100346 1.79363911 4.50940468 3.01880935 6 6 C6.67660495 11.86390959 6.67660495 11.86390959 4.953125 14.7578125 C2.24830146 18.05133293 0.48199038 19.7979104 -3.75 20.375 C-7.25410161 19.97068058 -9.1998617 19.03065443 -11.796875 16.625 C-13.9921926 13.65989571 -14.3293664 10.61571115 -14 7 C-11.20255119 0.56586773 -6.77299948 -1.10902915 0 0 Z " fill="#99C7FF" transform="translate(422,448)"/>
</svg>
